<svg width="30" height="29" viewBox="0 0 30 29" fill="none" xmlns="http://www.w3.org/2000/svg">
<circle cx="14.9501" cy="14.6498" r="13.9203" stroke="#EBE2DA" stroke-width="0.85928"/>
<path d="M19.0786 18.6606H17.3414V15.9386C17.3414 15.2895 17.3282 14.4542 16.4362 14.4542C15.5305 14.4542 15.3922 15.1604 15.3922 15.8907V18.6606H13.6551V13.0631H15.3238V13.8261H15.3462C15.5794 13.3862 16.1464 12.9218 16.9934 12.9218C18.7535 12.9218 19.079 14.0802 19.079 15.5881V18.6606H19.0786ZM11.6931 12.2972C11.1339 12.2972 10.6847 11.8446 10.6847 11.2878C10.6847 10.7316 11.1344 10.2795 11.6931 10.2795C12.2503 10.2795 12.7019 10.7316 12.7019 11.2878C12.7019 11.8446 12.2498 12.2972 11.6931 12.2972ZM12.5641 18.6606H10.8221V13.0631H12.5641V18.6606ZM19.9476 8.66406H9.9501C9.47159 8.66406 9.08447 9.04238 9.08447 9.50916V19.5497C9.08447 20.017 9.47159 20.3948 9.9501 20.3948H19.9461C20.4242 20.3948 20.8152 20.017 20.8152 19.5497V9.50916C20.8152 9.04238 20.4242 8.66406 19.9461 8.66406H19.9476Z" fill="#EBE2DA"/>
</svg>
