<svg width="29" height="29" viewBox="0 0 29 29" fill="none" xmlns="http://www.w3.org/2000/svg">
<circle cx="14.65" cy="14.6498" r="13.9203" stroke="#EBE2DA" stroke-width="0.85928"/>
<path d="M14.6498 8.78418C13.0564 8.78418 12.8574 8.79151 12.2318 8.81937C11.6071 8.8487 11.1819 8.94694 10.808 9.09211C10.4223 9.24168 10.0948 9.44257 9.76883 9.76858C9.44281 10.0946 9.24143 10.4216 9.09236 10.8077C8.94719 11.1816 8.84845 11.6069 8.81962 12.2315C8.79029 12.8572 8.78442 13.0561 8.78442 14.6495C8.78442 16.243 8.79176 16.4419 8.81962 17.0675C8.84894 17.6917 8.94719 18.1174 9.09236 18.4914C9.24192 18.8765 9.44281 19.2045 9.76883 19.5305C10.0948 19.856 10.4218 20.0579 10.808 20.207C11.1824 20.3517 11.6076 20.4509 12.2318 20.4797C12.8574 20.509 13.0564 20.5149 14.6498 20.5149C16.2432 20.5149 16.4421 20.5076 17.0678 20.4797C17.692 20.4504 18.1177 20.3517 18.4916 20.207C18.8768 20.0574 19.2047 19.856 19.5307 19.5305C19.8563 19.2045 20.0581 18.878 20.2072 18.4914C20.3519 18.1174 20.4511 17.6917 20.48 17.0675C20.5093 16.4419 20.5151 16.243 20.5151 14.6495C20.5151 13.0561 20.5078 12.8572 20.48 12.2315C20.4506 11.6074 20.3519 11.1812 20.2072 10.8077C20.0577 10.4221 19.8563 10.0946 19.5307 9.76858C19.2047 9.44257 18.8782 9.24119 18.4916 9.09211C18.1177 8.94694 17.692 8.84821 17.0678 8.81937C16.4421 8.79005 16.2432 8.78418 14.6498 8.78418ZM14.6498 9.83994C16.2153 9.83994 16.4021 9.84777 17.0204 9.87465C17.5922 9.90153 17.9026 9.99635 18.1089 10.0775C18.3836 10.1836 18.5781 10.3106 18.7844 10.5154C18.9892 10.7207 19.1163 10.9158 19.2223 11.1904C19.3025 11.3967 19.3983 11.7071 19.4242 12.279C19.4521 12.8978 19.4584 13.0835 19.4584 14.6495C19.4584 16.2156 19.4511 16.4018 19.4222 17.0201C19.3924 17.592 19.2971 17.9024 19.2165 18.1086C19.107 18.3833 18.9823 18.5779 18.777 18.7841C18.5722 18.9889 18.3743 19.116 18.1025 19.2221C17.8972 19.3022 17.582 19.398 17.0101 19.4239C16.3874 19.4518 16.2041 19.4582 14.6351 19.4582C13.0656 19.4582 12.8824 19.4508 12.2601 19.422C11.6878 19.3922 11.3725 19.2969 11.1672 19.2162C10.8891 19.1067 10.698 18.9821 10.4932 18.7768C10.2874 18.572 10.1559 18.374 10.0533 18.1023C9.97265 17.897 9.87783 17.5817 9.84801 17.0099C9.82601 16.394 9.81819 16.2039 9.81819 14.6422C9.81819 13.0801 9.82601 12.8894 9.84801 12.2662C9.87783 11.6944 9.97265 11.3796 10.0533 11.1743C10.1559 10.8957 10.2874 10.7051 10.4932 10.4993C10.698 10.2945 10.8891 10.1625 11.1672 10.0604C11.3725 9.97925 11.6809 9.88394 12.2528 9.85461C12.876 9.83261 13.0593 9.82528 14.6278 9.82528L14.6498 9.83994ZM14.6498 11.6377C12.9855 11.6377 11.6379 12.9867 11.6379 14.6495C11.6379 16.3138 12.987 17.6614 14.6498 17.6614C16.3141 17.6614 17.6616 16.3124 17.6616 14.6495C17.6616 12.9852 16.3126 11.6377 14.6498 11.6377ZM14.6498 16.6047C13.5696 16.6047 12.6947 15.7297 12.6947 14.6495C12.6947 13.5693 13.5696 12.6944 14.6498 12.6944C15.73 12.6944 16.6049 13.5693 16.6049 14.6495C16.6049 15.7297 15.73 16.6047 14.6498 16.6047ZM18.4848 11.5189C18.4848 11.9075 18.169 12.2227 17.7809 12.2227C17.3923 12.2227 17.0771 11.907 17.0771 11.5189C17.0771 11.1308 17.3928 10.8156 17.7809 10.8156C18.1685 10.8151 18.4848 11.1308 18.4848 11.5189Z" fill="#EBE2DA"/>
</svg>
