<svg width="245" height="157" viewBox="0 0 245 157" fill="none" xmlns="http://www.w3.org/2000/svg">
<g filter="url(#filter0_d_44_1234)">
<path d="M233.518 76.5C233.518 94.6631 221.293 111.276 201.168 123.401C181.062 135.514 153.222 143.039 122.418 143.039C91.6127 143.039 63.7726 135.514 43.6668 123.401C23.5418 111.276 11.3174 94.6631 11.3174 76.5C11.3174 58.3369 23.5418 41.7244 43.6668 29.5993C63.7726 17.4859 91.6127 9.96109 122.418 9.96109C153.222 9.96109 181.062 17.4859 201.168 29.5993C221.293 41.7244 233.518 58.3369 233.518 76.5Z" fill="#DDF38D" stroke="#242424" stroke-width="2"/>
<path d="M196.22 76.5C196.22 113.155 163.277 143.039 122.419 143.039C81.5615 143.039 48.6182 113.155 48.6182 76.5C48.6182 39.8452 81.5615 9.96109 122.419 9.96109C163.277 9.96109 196.22 39.8452 196.22 76.5Z" stroke="#242424" stroke-width="2"/>
<line x1="10.3174" y1="77.4178" x2="234.519" y2="77.4178" stroke="#242424" stroke-width="2"/>
<path d="M159.802 76.5C159.802 95.0094 155.535 111.717 148.686 123.763C141.821 135.838 132.491 143.039 122.404 143.039C112.317 143.039 102.986 135.838 96.1214 123.763C89.2729 111.717 85.0054 95.0094 85.0054 76.5C85.0054 57.9906 89.2729 41.2827 96.1214 29.237C102.986 17.1621 112.317 9.96109 122.404 9.96109C132.491 9.96109 141.821 17.1621 148.686 29.237C155.535 41.2827 159.802 57.9906 159.802 76.5Z" fill="#DDF38D" stroke="#242424" stroke-width="2"/>
<path d="M123.702 61.5001L122.403 46.5611L121.103 61.5001C120.498 68.4681 111.223 74.1437 99.2361 74.8829C111.223 75.6221 120.498 81.2977 121.103 88.2658L122.403 103.205L123.702 88.2658C124.307 81.2977 133.583 75.6221 145.57 74.8829C133.583 74.1437 124.307 68.4681 123.702 61.5001Z" fill="#242424"/>
</g>
<defs>
<filter id="filter0_d_44_1234" x="0.317383" y="0.96109" width="244.201" height="155.078" filterUnits="userSpaceOnUse" color-interpolation-filters="sRGB">
<feFlood flood-opacity="0" result="BackgroundImageFix"/>
<feColorMatrix in="SourceAlpha" type="matrix" values="0 0 0 0 0 0 0 0 0 0 0 0 0 0 0 0 0 0 127 0" result="hardAlpha"/>
<feOffset dy="2"/>
<feGaussianBlur stdDeviation="5"/>
<feComposite in2="hardAlpha" operator="out"/>
<feColorMatrix type="matrix" values="0 0 0 0 0.141176 0 0 0 0 0.141176 0 0 0 0 0.141176 0 0 0 0.16 0"/>
<feBlend mode="normal" in2="BackgroundImageFix" result="effect1_dropShadow_44_1234"/>
<feBlend mode="normal" in="SourceGraphic" in2="effect1_dropShadow_44_1234" result="shape"/>
</filter>
</defs>
</svg>
