<svg width="49" height="50" viewBox="0 0 49 50" fill="none" xmlns="http://www.w3.org/2000/svg">
<g style="mix-blend-mode:exclusion">
<path d="M14.6086 1.52347C19.0105 1.81926 23.2289 4.33702 26.6245 7.15389C27.1281 7.57166 27.629 7.9872 28.1345 8.37157C28.8851 8.94221 29.7407 9.26534 30.6489 9.26534C31.7695 9.26534 32.8102 8.77333 33.6721 7.93138C33.7474 7.85781 33.823 7.78384 33.8988 7.70959C35.7713 5.8762 37.8106 3.87962 40.4103 3.87962C44.1283 3.87962 47.1423 6.8937 47.1423 10.6118C47.1423 14.3298 44.1283 17.3439 40.4103 17.3439C38.0011 17.3439 36.058 15.667 34.1953 14.0596C33.914 13.8169 33.6345 13.5757 33.3556 13.3421C33.1585 13.1771 32.9535 13.0296 32.7415 12.901C31.9618 12.345 31.062 12.0279 30.1038 12.0279C27.127 12.0279 24.7137 15.0886 24.7137 18.8643C24.7137 21.1834 25.6242 23.2329 27.0166 24.4689C28.2385 25.8382 29.9717 26.5897 31.9425 26.7527C32.1173 26.7672 32.2928 26.7815 32.469 26.7959L32.4697 26.7959C36.8263 27.1512 41.5706 27.5382 44.4121 30.8136C48.4759 35.4978 47.973 42.5897 43.2888 46.6536C38.6046 50.7175 31.513 50.2145 27.4491 45.5302C24.8159 42.4949 24.8046 38.2139 24.7938 34.1101C24.7921 33.4904 24.7905 32.8747 24.7799 32.268C24.7495 30.5382 24.2193 28.9562 23.1409 27.7131C22.2997 26.7434 21.2073 26.0749 19.9568 25.6976C18.5905 25.2854 17.1516 24.9778 15.7107 24.6697C11.8144 23.8365 7.90349 23.0003 5.3746 20.0853C1.31079 15.401 1.8137 8.30917 6.49789 4.24526C8.82861 2.22318 11.7554 1.33174 14.6086 1.52347Z" stroke="#EBE2DA" stroke-linejoin="round"/>
</g>
</svg>
