<svg width="48" height="49" viewBox="0 0 48 49" fill="none" xmlns="http://www.w3.org/2000/svg">
<path d="M46.9286 24.3358C46.9286 37.2605 37.208 47.6736 25.2935 47.6736C13.3791 47.6736 3.65845 37.2605 3.65845 24.3358C3.65845 11.4112 13.3791 0.998047 25.2935 0.998047C37.208 0.998047 46.9286 11.4112 46.9286 24.3358Z" stroke="#EBE2DA"/>
<path d="M33.7554 24.3358C33.7554 30.8742 32.7582 36.7713 31.1625 41.0157C30.3639 43.1397 29.4252 44.8239 28.4081 45.9681C27.3906 47.1128 26.3369 47.6736 25.2934 47.6736C24.2498 47.6736 23.1961 47.1128 22.1786 45.9681C21.1616 44.8239 20.2228 43.1397 19.4242 41.0157C17.8285 36.7713 16.8313 30.8742 16.8313 24.3358C16.8313 17.7974 17.8285 11.9003 19.4242 7.65592C20.2228 5.53191 21.1616 3.84774 22.1786 2.70352C23.1961 1.55879 24.2498 0.998047 25.2934 0.998047C26.3369 0.998047 27.3906 1.55879 28.4081 2.70352C29.4252 3.84774 30.3639 5.53191 31.1625 7.65592C32.7582 11.9003 33.7554 17.7974 33.7554 24.3358Z" stroke="#EBE2DA"/>
<path d="M25.2934 33.4873C19.233 33.4873 13.7703 32.4152 9.84138 30.7021C7.87614 29.8452 6.31725 28.8378 5.25669 27.7445C4.19843 26.6535 3.65832 25.5024 3.65832 24.3358C3.65832 23.1693 4.19843 22.0181 5.25669 20.9272C6.31725 19.8339 7.87614 18.8264 9.84138 17.9696C13.7703 16.2564 19.233 15.1844 25.2934 15.1844C31.3537 15.1844 36.8165 16.2564 40.7454 17.9696C42.7106 18.8265 44.2695 19.8339 45.3301 20.9272C46.3884 22.0181 46.9285 23.1693 46.9285 24.3358C46.9285 25.5024 46.3884 26.6535 45.3301 27.7445C44.2695 28.8378 42.7106 29.8452 40.7454 30.7021C36.8165 32.4152 31.3537 33.4873 25.2934 33.4873Z" stroke="#EBE2DA"/>
</svg>
