<svg width="50" height="50" viewBox="0 0 50 50" fill="none" xmlns="http://www.w3.org/2000/svg">
<path d="M45.487 19.4761C47.5353 17.7114 48.7082 15.661 48.7082 13.4737C48.7082 6.85974 37.9848 1.49805 24.7568 1.49805C11.5288 1.49805 0.80542 6.85974 0.80542 13.4737C0.80542 15.661 1.97823 17.7114 4.02658 19.4761M45.487 19.4761C47.5353 21.2324 48.7082 23.2728 48.7082 25.4496C48.7082 27.6262 47.5354 29.6666 45.4872 31.4228M45.487 19.4761C41.3416 23.0476 33.6101 25.4494 24.7568 25.4494C15.9034 25.4494 8.17201 23.0476 4.02658 19.4761M4.02658 19.4761C1.97823 21.2324 0.80542 23.2728 0.80542 25.4496C0.80542 27.6262 1.97816 29.6666 4.0264 31.4228M4.0264 31.4228C1.97816 33.1875 0.80542 35.2378 0.80542 37.4251C0.80542 44.0391 11.5288 49.4008 24.7568 49.4008C37.9848 49.4008 48.7082 44.0391 48.7082 37.4251C48.7082 35.2378 47.5354 33.1875 45.4872 31.4228M4.0264 31.4228C8.17179 34.9772 15.9033 37.3674 24.7568 37.3674C33.6103 37.3674 41.3418 34.9772 45.4872 31.4228" stroke="#EBE2DA" stroke-linejoin="round"/>
</svg>
