<svg width="42" height="47" viewBox="0 0 42 47" fill="none" xmlns="http://www.w3.org/2000/svg">
<path d="M21.2777 46.9439C23.5177 46.9439 25.2457 44.8319 25.2457 41.8239C25.2457 40.3519 24.6697 37.9839 23.5817 34.6559C22.4937 31.3279 21.9177 28.2559 21.9177 25.5039V24.6719C24.7337 26.4639 26.6537 27.9359 27.5497 28.9599C29.4057 31.0719 34.2697 37.0879 38.0457 37.0879C40.2857 37.0879 41.8217 35.4879 41.8217 33.5679C41.8217 32.4799 41.3737 31.5199 40.4777 30.5599C38.6857 28.7039 34.7177 27.8079 30.0457 26.7839C27.6777 26.2719 25.1817 25.3119 22.4297 23.7759C25.2457 22.2399 27.8057 21.2159 30.2377 20.7039C32.6057 20.1919 34.7177 19.6799 36.5097 19.1039C40.2217 17.8879 41.8217 16.0319 41.8217 13.8559C41.8217 11.8719 40.2857 10.4639 38.2377 10.4639C36.9577 10.4639 35.7417 10.8479 34.5257 11.6799C33.3737 12.4479 31.2617 14.4959 28.2537 17.8239C25.1177 20.8319 25.5657 20.5759 21.9177 22.8799C21.9177 19.8079 22.4937 16.5439 23.6457 13.1519C24.7977 9.75991 25.3737 7.26391 25.3737 5.72791C25.3737 2.65591 23.6457 0.60791 21.4057 0.60791C19.1017 0.60791 17.4377 2.78391 17.4377 5.72791C17.4377 7.96791 19.0377 12.7679 20.0617 15.8399C20.5737 17.3759 20.7657 19.4879 20.7657 22.0479V22.8799C18.2057 21.3439 16.2217 19.7439 14.8137 18.1439C11.9977 14.9439 8.02969 10.4639 4.63769 10.4639C2.39769 10.4639 0.861694 11.9359 0.861694 13.8559C0.861694 14.9439 1.30969 15.9679 2.14169 16.9279C3.80569 18.8479 7.64569 19.6799 12.4457 20.7039C14.8777 21.2159 17.5017 22.2399 20.2537 23.7759C17.5657 25.3119 15.0057 26.3359 12.7017 26.7839C10.3337 27.2319 8.22169 27.8079 6.36569 28.3199C2.58969 29.3439 0.861694 31.4559 0.861694 33.5679C0.861694 35.4879 2.52569 37.0879 4.57369 37.0879C7.9017 37.0879 11.0377 33.5679 14.2377 29.9839C15.8377 28.1919 17.9497 26.3999 20.7657 24.6719C20.7657 27.9999 20.1897 31.1999 19.0377 34.5279C17.8857 37.7919 17.3097 40.2239 17.3097 41.8239C17.3097 44.7039 18.9097 46.9439 21.2777 46.9439Z" fill="#EBE2DA" style="mix-blend-mode:exclusion"/>
</svg>
