<svg width="57" height="35" viewBox="0 0 57 35" fill="none" xmlns="http://www.w3.org/2000/svg">
<path d="M47.0176 17.6708C47.0176 26.831 38.7765 34.3416 28.5005 34.3416C18.2245 34.3416 9.9834 26.831 9.9834 17.6708C9.9834 8.51059 18.2245 1 28.5005 1C38.7765 1 47.0176 8.51059 47.0176 17.6708Z" stroke="#242424"/>
<path d="M56.4998 17.6708C56.4998 22.1688 53.4712 26.3254 48.3943 29.3841C43.327 32.4371 36.2945 34.3416 28.4999 34.3416C20.7053 34.3416 13.6727 32.4371 8.60545 29.3841C3.52855 26.3254 0.5 22.1688 0.5 17.6708C0.5 13.1728 3.52855 9.01626 8.60545 5.95749C13.6727 2.90453 20.7053 1 28.4999 1C36.2945 1 43.327 2.90453 48.3943 5.95749C53.4712 9.01626 56.4998 13.1728 56.4998 17.6708Z" stroke="#242424"/>
<line x1="-4.37114e-08" y1="17.6582" x2="57" y2="17.6582" stroke="#242424"/>
<path d="M37.7589 17.6708C37.7589 22.3419 36.6814 26.5462 34.965 29.5653C33.2402 32.599 30.9343 34.3416 28.4967 34.3416C26.059 34.3416 23.7531 32.599 22.0283 29.5653C20.3119 26.5462 19.2344 22.3419 19.2344 17.6708C19.2344 12.9997 20.3119 8.79541 22.0283 5.77634C23.7531 2.74263 26.059 1 28.4967 1C30.9343 1 33.2402 2.74263 34.965 5.77634C36.6814 8.79541 37.7589 12.9997 37.7589 17.6708Z" fill="#EBE2DA" stroke="#242424"/>
<path d="M28.8266 13.8571L28.4963 10.0591L28.1659 13.8571C28.0121 15.6286 25.6539 17.0716 22.6064 17.2595C25.6539 17.4474 28.0121 18.8904 28.1659 20.6619L28.4963 24.4599L28.8266 20.6619C28.9804 18.8904 31.3386 17.4474 34.3861 17.2595C31.3386 17.0716 28.9804 15.6286 28.8266 13.8571Z" fill="#242424"/>
</svg>
